# Blender 4.0.2
# www.blender.org
mtllib Bullet2.mtl
g object_1_object_1.002
v 4.291887 0.853587 -305.082764
v 4.291887 0.853614 60.126648
v 4.291887 -0.853633 -305.082764
v 4.291887 -0.853605 60.126648
v 3.638549 -2.431180 -305.082764
v 3.638549 -2.431153 60.126648
v 2.431157 -3.638572 -305.082764
v 2.431157 -3.638544 60.126648
v 0.853610 -4.291910 -305.082764
v 0.853610 -4.291883 60.126648
v -0.853610 -4.291910 -305.082764
v -0.853610 -4.291883 60.126648
v -2.431157 -3.638572 -305.082764
v -2.431157 -3.638544 60.126648
v -3.638549 -2.431180 -305.082764
v -3.638549 -2.431153 60.126648
v -4.291887 -0.853633 -305.082764
v -4.291887 -0.853605 60.126648
v 3.834236 0.762713 61.836662
v 3.834236 -0.762704 61.836662
v 3.250319 -2.171808 61.836662
v 2.171812 -3.250313 61.836662
v 0.762708 -3.834231 61.836662
v -0.762708 -3.834231 61.836662
v -2.171813 -3.250313 61.836662
v -3.250319 -2.171808 61.836662
v -3.834236 -0.762704 61.836662
v 2.583620 0.513847 63.085403
v 2.583620 -0.513838 63.085403
v 2.190150 -1.463457 63.085403
v 1.463462 -2.190145 63.085403
v 0.513842 -2.583615 63.085403
v -0.513842 -2.583615 63.085403
v -1.463462 -2.190145 63.085403
v -2.190150 -1.463457 63.085403
v -2.583620 -0.513838 63.085403
v 0.875091 0.174080 63.546638
v 0.875091 -0.174070 63.546638
v 0.742013 -0.495762 63.546638
v 0.495767 -0.742008 63.546638
v 0.174075 -0.875086 63.546638
v -0.174075 -0.875086 63.546638
v -0.495767 -0.742008 63.546638
v -0.742013 -0.495762 63.546638
v -0.875091 -0.174070 63.546638
v -4.291887 -0.853633 -305.082764
v -4.291887 -0.853605 60.126648
v -4.291887 0.853587 -305.082764
v -4.291887 0.853614 60.126648
v -3.638549 2.431134 -305.082764
v -3.638549 2.431161 60.126648
v -2.431157 3.638526 -305.082764
v -2.431157 3.638554 60.126648
v -0.853610 4.291864 -305.082764
v -0.853610 4.291892 60.126648
v 0.853610 4.291864 -305.082764
v 0.853610 4.291892 60.126648
v 2.431157 3.638526 -305.082764
v 2.431157 3.638554 60.126648
v 3.638549 2.431134 -305.082764
v 3.638549 2.431161 60.126648
v 4.291887 0.853587 -305.082764
v 4.291887 0.853614 60.126648
v -3.834236 -0.762704 61.836662
v -3.834236 0.762713 61.836662
v -3.250319 2.171817 61.836662
v -2.171813 3.250323 61.836662
v -0.762708 3.834241 61.836662
v 0.762708 3.834241 61.836662
v 2.171812 3.250323 61.836662
v 3.250319 2.171817 61.836662
v 3.834236 0.762713 61.836662
v -2.583620 -0.513838 63.085403
v -2.583620 0.513847 63.085403
v -2.190150 1.463467 63.085403
v -1.463462 2.190155 63.085403
v -0.513842 2.583625 63.085403
v 0.513842 2.583625 63.085403
v 1.463462 2.190155 63.085403
v 2.190150 1.463467 63.085403
v 2.583620 0.513847 63.085403
v -0.875091 -0.174070 63.546638
v -0.875091 0.174080 63.546638
v -0.742013 0.495772 63.546638
v -0.495767 0.742018 63.546638
v -0.174075 0.875095 63.546638
v 0.174075 0.875095 63.546638
v 0.495767 0.742018 63.546638
v 0.742013 0.495772 63.546638
v 0.875091 0.174080 63.546638
v -0.875091 -0.174070 63.546638
v -0.742013 -0.495762 63.546638
v -0.875091 0.174080 63.546638
v -0.742013 0.495772 63.546638
v -0.495767 -0.742008 63.546638
v -0.495767 0.742018 63.546638
v -0.174075 -0.875086 63.546638
v -0.174075 0.875095 63.546638
v 0.174075 -0.875086 63.546638
v 0.174075 0.875095 63.546638
v 0.495767 -0.742008 63.546638
v 0.495767 0.742018 63.546638
v 0.742013 -0.495762 63.546638
v 0.742013 0.495772 63.546638
v 0.875091 -0.174070 63.546638
v 0.875091 0.174080 63.546638
vn 0.9808 0.1951 0.0022
vn 0.9718 0.1950 0.1329
vn 0.9808 -0.1951 0.0022
vn 0.9718 -0.1950 0.1329
vn 0.8315 -0.5556 0.0022
vn 0.8255 -0.5485 0.1329
vn 0.5556 -0.8315 0.0022
vn 0.5501 -0.8245 0.1329
vn 0.1951 -0.9808 0.0022
vn 0.1968 -0.9714 0.1329
vn -0.1951 -0.9808 0.0022
vn -0.1931 -0.9721 0.1329
vn -0.5556 -0.8315 0.0022
vn -0.5532 -0.8224 0.1329
vn -0.8315 -0.5556 0.0022
vn -0.8235 -0.5516 0.1329
vn -0.8234 -0.5516 0.1329
vn -0.9808 -0.1951 0.0022
vn -0.9725 -0.1913 0.1329
vn 0.8538 0.1725 0.4911
vn 0.8538 0.1725 0.4912
vn 0.8538 -0.1725 0.4912
vn 0.8538 -0.1725 0.4911
vn 0.7241 -0.4841 0.4912
vn 0.4857 -0.7231 0.4911
vn 0.5500 -0.8245 0.1329
vn 0.1669 -0.8549 0.4911
vn 0.1669 -0.8549 0.4912
vn -0.1706 -0.8542 0.4911
vn -0.1932 -0.9721 0.1329
vn -0.1707 -0.8542 0.4911
vn -0.1706 -0.8542 0.4912
vn -0.4826 -0.7252 0.4911
vn -0.4826 -0.7252 0.4912
vn -0.7262 -0.4810 0.4911
vn -0.7262 -0.4810 0.4912
vn -0.8546 -0.1688 0.4911
vn 0.5064 0.0974 0.8568
vn 0.5065 0.0974 0.8567
vn 0.5065 -0.0974 0.8567
vn 0.5064 -0.0974 0.8568
vn 0.5064 -0.0973 0.8568
vn 0.4301 -0.2845 0.8568
vn 0.7241 -0.4841 0.4911
vn 0.7241 -0.4842 0.4912
vn 0.4300 -0.2845 0.8568
vn 0.2877 -0.4280 0.8568
vn 0.4857 -0.7231 0.4912
vn 0.1011 -0.5057 0.8568
vn 0.1670 -0.8549 0.4911
vn 0.1010 -0.5057 0.8568
vn -0.1011 -0.5057 0.8568
vn -0.2877 -0.4280 0.8568
vn -0.4301 -0.2845 0.8568
vn -0.7263 -0.4810 0.4911
vn -0.5064 -0.0974 0.8568
vn -0.8546 -0.1688 0.4912
vn 0.1406 0.0296 0.9896
vn 0.1406 -0.0296 0.9896
vn 0.1404 -0.0296 0.9896
vn 0.1207 -0.0777 0.9896
vn 0.4299 -0.2846 0.8569
vn 0.4301 -0.2846 0.8568
vn 0.1209 -0.0777 0.9896
vn 0.0791 -0.1199 0.9896
vn 0.2875 -0.4280 0.8568
vn 0.0793 -0.1199 0.9896
vn 0.0790 -0.1199 0.9896
vn 0.0312 -0.1402 0.9896
vn 0.1008 -0.5057 0.8568
vn 0.0315 -0.1402 0.9896
vn -0.0278 -0.1410 0.9896
vn -0.0823 -0.1178 0.9896
vn -0.2876 -0.4280 0.8568
vn -0.4300 -0.2845 0.8568
vn -0.1188 -0.0808 0.9896
vn -0.4301 -0.2846 0.8568
vn -0.1413 -0.0260 0.9896
vn -0.9808 0.1951 0.0022
vn -0.9725 0.1913 0.1329
vn -0.8315 0.5556 0.0022
vn -0.8234 0.5516 0.1329
vn -0.5556 0.8315 0.0022
vn -0.5532 0.8224 0.1329
vn -0.1951 0.9808 0.0022
vn -0.5532 0.8224 0.1328
vn -0.1931 0.9721 0.1329
vn 0.1951 0.9808 0.0022
vn 0.1968 0.9714 0.1329
vn 0.5556 0.8315 0.0022
vn 0.5501 0.8245 0.1329
vn 0.8315 0.5556 0.0022
vn 0.8255 0.5485 0.1329
vn -0.9725 -0.1913 0.1328
vn -0.8546 0.1688 0.4912
vn -0.8546 0.1688 0.4911
vn -0.7262 0.4810 0.4912
vn -0.7262 0.4810 0.4911
vn -0.4826 0.7252 0.4912
vn -0.4826 0.7252 0.4911
vn -0.1706 0.8542 0.4911
vn -0.1706 0.8542 0.4912
vn 0.1669 0.8549 0.4912
vn 0.1669 0.8549 0.4911
vn 0.5500 0.8245 0.1329
vn 0.4857 0.7231 0.4912
vn 0.4857 0.7231 0.4911
vn 0.8256 0.5484 0.1329
vn 0.7241 0.4842 0.4911
vn 0.7241 0.4841 0.4911
vn 0.7241 0.4842 0.4912
vn -0.5064 0.0974 0.8568
vn -0.5064 0.0973 0.8568
vn -0.4301 0.2845 0.8568
vn -0.4300 0.2845 0.8568
vn -0.2877 0.4280 0.8568
vn -0.1011 0.5057 0.8568
vn -0.1010 0.5057 0.8568
vn 0.1011 0.5057 0.8568
vn 0.1670 0.8549 0.4911
vn 0.2877 0.4280 0.8568
vn 0.7241 0.4841 0.4912
vn 0.2876 0.4280 0.8568
vn 0.4301 0.2845 0.8568
vn 0.8539 0.1725 0.4911
vn 0.4300 0.2846 0.8568
vn -0.1413 0.0260 0.9896
vn -0.1414 0.0260 0.9896
vn -0.1415 0.0260 0.9896
vn -0.1190 0.0808 0.9896
vn -0.4302 0.2846 0.8567
vn -0.4301 0.2846 0.8568
vn -0.1189 0.0808 0.9896
vn -0.0825 0.1178 0.9896
vn -0.2878 0.4280 0.8567
vn -0.0823 0.1178 0.9896
vn -0.0821 0.1178 0.9896
vn -0.0276 0.1410 0.9896
vn -0.1009 0.5057 0.8568
vn -0.0278 0.1410 0.9896
vn 0.0315 0.1402 0.9896
vn 0.0314 0.1402 0.9896
vn 0.0792 0.1198 0.9896
vn 0.0793 0.1199 0.9896
vn 0.4302 0.2845 0.8567
vn 0.0792 0.1199 0.9896
vn 0.1209 0.0777 0.9896
vn 0.1407 0.0296 0.9896
vn 0.5065 0.0974 0.8568
vn -0.1403 -0.0260 0.9898
vn -0.1178 -0.0808 0.9897
vn -0.1403 0.0260 0.9898
vn -0.1191 -0.0808 0.9896
vn -0.1191 0.0808 0.9896
vn -0.1416 0.0260 0.9896
vn -0.1188 0.0808 0.9896
vn -0.0825 -0.1177 0.9896
vn -0.0824 0.1177 0.9896
vn -0.0277 -0.1410 0.9896
vn -0.0277 0.1410 0.9896
vn 0.0792 -0.1199 0.9896
vn 0.0791 0.1199 0.9896
vn 0.0795 -0.1199 0.9896
vn 0.1211 -0.0777 0.9896
vn 0.0795 0.1199 0.9896
vn 0.1207 -0.0777 0.9897
vn 0.1207 0.0777 0.9897
vn 0.1213 -0.0777 0.9896
vn 0.1410 -0.0296 0.9896
vn 0.1213 0.0777 0.9896
vn 0.1401 -0.0296 0.9897
vn 0.1401 0.0296 0.9897
vn 0.1204 0.0777 0.9897
vt 0.134309 0.000871
vt 0.134309 0.951433
vt 0.117526 0.000871
vt 0.116167 0.945089
vt 0.100777 0.000749
vt 0.099622 0.940697
vt 0.084027 0.000627
vt 0.084095 0.938258
vt 0.067244 0.000627
vt 0.069113 0.937526
vt 0.050495 0.000505
vt 0.054096 0.938380
vt 0.033746 0.000505
vt 0.038536 0.940819
vt 0.016962 0.000383
vt 0.022059 0.944845
vt 0.000383 0.000383
vt 0.004290 0.950091
vt 0.123913 0.971927
vt 0.109033 0.962412
vt 0.095409 0.956556
vt 0.082295 0.953385
vt 0.069385 0.952409
vt 0.056440 0.953385
vt 0.043089 0.956678
vt 0.028955 0.962290
vt 0.013089 0.971561
vt 0.106586 0.987298
vt 0.098263 0.978149
vt 0.089022 0.972415
vt 0.079373 0.969244
vt 0.069622 0.968268
vt 0.059770 0.969487
vt 0.049985 0.973025
vt 0.040303 0.979247
vt 0.031028 0.989494
vt 0.085081 0.997424
vt 0.082363 0.993642
vt 0.078660 0.991080
vt 0.074447 0.989738
vt 0.069996 0.989494
vt 0.065613 0.990348
vt 0.061503 0.992422
vt 0.057969 0.995472
vt 0.055421 0.999620
vt 0.269017 0.000871
vt 0.269017 0.951433
vt 0.252234 0.000871
vt 0.250875 0.945089
vt 0.235485 0.000749
vt 0.234295 0.940697
vt 0.218701 0.000627
vt 0.218803 0.938258
vt 0.201952 0.000627
vt 0.203821 0.937526
vt 0.185203 0.000505
vt 0.188770 0.938380
vt 0.168453 0.000505
vt 0.173244 0.940819
vt 0.151670 0.000383
vt 0.156732 0.944845
vt 0.135091 0.000383
vt 0.138964 0.950091
vt 0.258621 0.971927
vt 0.243740 0.962412
vt 0.230117 0.956556
vt 0.217003 0.953385
vt 0.204092 0.952409
vt 0.191114 0.953385
vt 0.177796 0.956678
vt 0.163663 0.962290
vt 0.147797 0.971561
vt 0.241294 0.987298
vt 0.232970 0.978149
vt 0.223729 0.972415
vt 0.214081 0.969244
vt 0.204296 0.968268
vt 0.194478 0.969487
vt 0.184659 0.973025
vt 0.175010 0.979247
vt 0.165735 0.989494
vt 0.219754 0.997424
vt 0.217070 0.993642
vt 0.213367 0.991080
vt 0.209155 0.989738
vt 0.204704 0.989494
vt 0.200321 0.990348
vt 0.196210 0.992422
vt 0.192677 0.995472
vt 0.190095 0.999620
vt 0.273332 0.000383
vt 0.275098 0.000383
vt 0.271701 0.001115
vt 0.270444 0.002335
vt 0.276729 0.001115
vt 0.269764 0.003921
vt 0.277986 0.002335
vt 0.269764 0.005751
vt 0.278666 0.003921
vt 0.270444 0.007337
vt 0.278666 0.005751
vt 0.271701 0.008556
vt 0.277986 0.007337
vt 0.273332 0.009288
vt 0.276729 0.008556
vt 0.275098 0.009288
s 0
g object_1_object_1.002
usemtl object_1.002
f 1/1/1 2/2/2 3/3/3
f 2/2/2 4/4/4 3/3/3
f 3/3/3 4/4/4 5/5/5
f 4/4/4 6/6/6 5/5/5
f 5/5/5 6/6/6 7/7/7
f 6/6/6 8/8/8 7/7/7
f 7/7/7 8/8/8 9/9/9
f 8/8/8 10/10/10 9/9/9
f 9/9/9 10/10/10 11/11/11
f 10/10/10 12/12/12 11/11/11
f 11/11/11 12/12/12 13/13/13
f 12/12/12 14/14/14 13/13/13
f 13/13/13 14/14/14 15/15/15
f 14/14/14 16/16/16 15/15/15
f 15/15/15 16/16/17 17/17/18
f 16/16/17 18/18/19 17/17/18
f 2/2/2 19/19/20 4/4/4
f 19/19/21 20/20/22 4/4/4
f 4/4/4 20/20/23 6/6/6
f 20/20/23 21/21/24 6/6/6
f 6/6/6 21/21/24 8/8/8
f 21/21/24 22/22/25 8/8/8
f 8/8/26 22/22/25 10/10/10
f 22/22/25 23/23/27 10/10/10
f 10/10/10 23/23/28 12/12/12
f 23/23/28 24/24/29 12/12/12
f 12/12/30 24/24/31 14/14/14
f 24/24/32 25/25/33 14/14/14
f 14/14/14 25/25/33 16/16/17
f 25/25/34 26/26/35 16/16/17
f 16/16/17 26/26/36 18/18/19
f 26/26/35 27/27/37 18/18/19
f 19/19/21 28/28/38 20/20/22
f 28/28/39 29/29/40 20/20/23
f 20/20/22 29/29/41 21/21/24
f 29/29/42 30/30/43 21/21/44
f 21/21/45 30/30/46 22/22/25
f 30/30/43 31/31/47 22/22/25
f 22/22/48 31/31/47 23/23/27
f 31/31/47 32/32/49 23/23/50
f 23/23/27 32/32/51 24/24/29
f 32/32/49 33/33/52 24/24/31
f 24/24/29 33/33/52 25/25/33
f 33/33/52 34/34/53 25/25/33
f 25/25/33 34/34/53 26/26/36
f 34/34/53 35/35/54 26/26/35
f 26/26/55 35/35/54 27/27/37
f 35/35/54 36/36/56 27/27/57
f 28/28/38 37/37/58 29/29/41
f 37/37/58 38/38/59 29/29/40
f 29/29/41 38/38/59 30/30/43
f 38/38/60 39/39/61 30/30/62
f 30/30/63 39/39/64 31/31/47
f 39/39/61 40/40/65 31/31/66
f 31/31/47 40/40/67 32/32/49
f 40/40/68 41/41/69 32/32/70
f 32/32/49 41/41/71 33/33/52
f 41/41/71 42/42/72 33/33/52
f 33/33/52 42/42/72 34/34/53
f 42/42/72 43/43/73 34/34/74
f 34/34/53 43/43/73 35/35/75
f 43/43/73 44/44/76 35/35/77
f 35/35/54 44/44/76 36/36/56
f 44/44/76 45/45/78 36/36/56
f 46/46/18 47/47/19 48/48/79
f 47/47/19 49/49/80 48/48/79
f 48/48/79 49/49/80 50/50/81
f 49/49/80 51/51/82 50/50/81
f 50/50/81 51/51/82 52/52/83
f 51/51/82 53/53/84 52/52/83
f 52/52/83 53/53/84 54/54/85
f 53/53/86 55/55/87 54/54/85
f 54/54/85 55/55/87 56/56/88
f 55/55/87 57/57/89 56/56/88
f 56/56/88 57/57/89 58/58/90
f 57/57/89 59/59/91 58/58/90
f 58/58/90 59/59/91 60/60/92
f 59/59/91 61/61/93 60/60/92
f 60/60/92 61/61/93 62/62/1
f 61/61/93 63/63/2 62/62/1
f 47/47/94 64/64/37 49/49/80
f 64/64/57 65/65/95 49/49/80
f 49/49/80 65/65/95 51/51/82
f 65/65/96 66/66/97 51/51/82
f 51/51/82 66/66/98 53/53/84
f 66/66/98 67/67/99 53/53/84
f 53/53/84 67/67/100 55/55/87
f 67/67/100 68/68/101 55/55/87
f 55/55/87 68/68/101 57/57/89
f 68/68/102 69/69/103 57/57/89
f 57/57/89 69/69/104 59/59/105
f 69/69/103 70/70/106 59/59/91
f 59/59/91 70/70/107 61/61/108
f 70/70/106 71/71/109 61/61/93
f 61/61/93 71/71/110 63/63/2
f 71/71/111 72/72/21 63/63/2
f 64/64/37 73/73/56 65/65/95
f 73/73/56 74/74/112 65/65/96
f 65/65/96 74/74/113 66/66/97
f 74/74/112 75/75/114 66/66/98
f 66/66/97 75/75/115 67/67/99
f 75/75/114 76/76/116 67/67/100
f 67/67/99 76/76/116 68/68/101
f 76/76/116 77/77/117 68/68/102
f 68/68/101 77/77/118 69/69/104
f 77/77/117 78/78/119 69/69/120
f 69/69/103 78/78/119 70/70/107
f 78/78/119 79/79/121 70/70/107
f 70/70/107 79/79/121 71/71/122
f 79/79/123 80/80/124 71/71/122
f 71/71/110 80/80/124 72/72/125
f 80/80/126 81/81/38 72/72/20
f 73/73/56 82/82/78 74/74/112
f 82/82/78 83/83/127 74/74/112
f 74/74/112 83/83/128 75/75/114
f 83/83/129 84/84/130 75/75/131
f 75/75/132 84/84/133 76/76/116
f 84/84/130 85/85/134 76/76/135
f 76/76/116 85/85/136 77/77/117
f 85/85/137 86/86/138 77/77/139
f 77/77/117 86/86/140 78/78/119
f 86/86/140 87/87/141 78/78/119
f 78/78/119 87/87/141 79/79/121
f 87/87/142 88/88/143 79/79/123
f 79/79/121 88/88/144 80/80/145
f 88/88/146 89/89/147 80/80/124
f 80/80/124 89/89/147 81/81/39
f 89/89/147 90/90/148 81/81/149
f 91/91/150 92/92/151 93/93/152
f 92/92/153 94/94/154 93/93/155
f 92/92/76 95/95/73 94/94/156
f 95/95/157 96/96/158 94/94/133
f 95/95/73 97/97/72 96/96/136
f 97/97/159 98/98/160 96/96/136
f 97/97/72 99/99/71 98/98/140
f 99/99/71 100/100/141 98/98/140
f 99/99/71 101/101/67 100/100/141
f 101/101/161 102/102/162 100/100/142
f 101/101/163 103/103/164 102/102/165
f 103/103/166 104/104/167 102/102/162
f 103/103/168 105/105/169 104/104/170
f 105/105/171 106/106/172 104/104/173
