# Blender 4.0.2
# www.blender.org
mtllib Bullet.mtl
o object_1
v 0.214594 0.042679 -15.254138
v 0.214594 0.042681 3.006332
v 0.214594 -0.042682 -15.254138
v 0.214594 -0.042680 3.006332
v 0.181927 -0.121559 -15.254138
v 0.181927 -0.121558 3.006332
v 0.121558 -0.181929 -15.254138
v 0.121558 -0.181927 3.006332
v 0.042680 -0.214596 -15.254138
v 0.042680 -0.214594 3.006332
v -0.042680 -0.214596 -15.254138
v -0.042680 -0.214594 3.006332
v -0.121558 -0.181929 -15.254138
v -0.121558 -0.181927 3.006332
v -0.181927 -0.121559 -15.254138
v -0.181927 -0.121558 3.006332
v -0.214594 -0.042682 -15.254138
v -0.214594 -0.042680 3.006332
v 0.191712 0.038136 3.091833
v 0.191712 -0.038135 3.091833
v 0.162516 -0.108590 3.091833
v 0.108591 -0.162516 3.091833
v 0.038135 -0.191712 3.091833
v -0.038135 -0.191712 3.091833
v -0.108591 -0.162516 3.091833
v -0.162516 -0.108590 3.091833
v -0.191712 -0.038135 3.091833
v 0.129181 0.025692 3.154270
v 0.129181 -0.025692 3.154270
v 0.109507 -0.073173 3.154270
v 0.073173 -0.109507 3.154270
v 0.025692 -0.129181 3.154270
v -0.025692 -0.129181 3.154270
v -0.073173 -0.109507 3.154270
v -0.109508 -0.073173 3.154270
v -0.129181 -0.025692 3.154270
v 0.043755 0.008704 3.177332
v 0.043755 -0.008704 3.177332
v 0.037101 -0.024788 3.177332
v 0.024788 -0.037100 3.177332
v 0.008704 -0.043754 3.177332
v -0.008704 -0.043754 3.177332
v -0.024788 -0.037100 3.177332
v -0.037101 -0.024788 3.177332
v -0.043755 -0.008704 3.177332
v -0.214594 -0.042682 -15.254138
v -0.214594 -0.042680 3.006332
v -0.214594 0.042679 -15.254138
v -0.214594 0.042681 3.006332
v -0.181927 0.121557 -15.254138
v -0.181927 0.121558 3.006332
v -0.121558 0.181926 -15.254138
v -0.121558 0.181928 3.006332
v -0.042680 0.214593 -15.254138
v -0.042680 0.214595 3.006332
v 0.042680 0.214593 -15.254138
v 0.042680 0.214595 3.006332
v 0.121558 0.181926 -15.254138
v 0.121558 0.181928 3.006332
v 0.181927 0.121557 -15.254138
v 0.181927 0.121558 3.006332
v 0.214594 0.042679 -15.254138
v 0.214594 0.042681 3.006332
v -0.191712 -0.038135 3.091833
v -0.191712 0.038136 3.091833
v -0.162516 0.108591 3.091833
v -0.108591 0.162516 3.091833
v -0.038135 0.191712 3.091833
v 0.038135 0.191712 3.091833
v 0.108591 0.162516 3.091833
v 0.162516 0.108591 3.091833
v 0.191712 0.038136 3.091833
v -0.129181 -0.025692 3.154270
v -0.129181 0.025692 3.154270
v -0.109508 0.073173 3.154270
v -0.073173 0.109508 3.154270
v -0.025692 0.129181 3.154270
v 0.025692 0.129181 3.154270
v 0.073173 0.109508 3.154270
v 0.109507 0.073173 3.154270
v 0.129181 0.025692 3.154270
v -0.043755 -0.008704 3.177332
v -0.043755 0.008704 3.177332
v -0.037101 0.024789 3.177332
v -0.024788 0.037101 3.177332
v -0.008704 0.043755 3.177332
v 0.008704 0.043755 3.177332
v 0.024788 0.037101 3.177332
v 0.037101 0.024789 3.177332
v 0.043755 0.008704 3.177332
v -0.043755 -0.008704 3.177332
v -0.037101 -0.024788 3.177332
v -0.043755 0.008704 3.177332
v -0.037101 0.024789 3.177332
v -0.024788 -0.037100 3.177332
v -0.024788 0.037101 3.177332
v -0.008704 -0.043754 3.177332
v -0.008704 0.043755 3.177332
v 0.008704 -0.043754 3.177332
v 0.008704 0.043755 3.177332
v 0.024788 -0.037100 3.177332
v 0.024788 0.037101 3.177332
v 0.037101 -0.024788 3.177332
v 0.037101 0.024789 3.177332
v 0.043755 -0.008704 3.177332
v 0.043755 0.008704 3.177332
vn 0.9808 0.1951 0.0022
vn 0.9718 0.1950 0.1329
vn 0.9808 -0.1951 0.0022
vn 0.9718 -0.1950 0.1329
vn 0.8315 -0.5556 0.0022
vn 0.8255 -0.5485 0.1329
vn 0.5556 -0.8315 0.0022
vn 0.5501 -0.8245 0.1329
vn 0.1951 -0.9808 0.0022
vn 0.1968 -0.9714 0.1329
vn -0.1951 -0.9808 0.0022
vn -0.1931 -0.9721 0.1329
vn -0.5556 -0.8315 0.0022
vn -0.5532 -0.8224 0.1329
vn -0.8315 -0.5556 0.0022
vn -0.8235 -0.5516 0.1329
vn -0.8234 -0.5516 0.1329
vn -0.9808 -0.1951 0.0022
vn -0.9725 -0.1913 0.1329
vn 0.8538 0.1725 0.4911
vn 0.8538 0.1725 0.4912
vn 0.8538 -0.1725 0.4911
vn 0.7242 -0.4841 0.4911
vn 0.7241 -0.4841 0.4912
vn 0.4857 -0.7231 0.4911
vn 0.5500 -0.8245 0.1329
vn 0.1669 -0.8549 0.4911
vn 0.1669 -0.8549 0.4912
vn -0.1706 -0.8542 0.4911
vn -0.1932 -0.9721 0.1329
vn -0.1706 -0.8542 0.4912
vn -0.4826 -0.7252 0.4911
vn -0.4826 -0.7252 0.4912
vn -0.7262 -0.4810 0.4911
vn -0.7262 -0.4810 0.4912
vn -0.8546 -0.1688 0.4911
vn 0.5064 0.0974 0.8568
vn 0.5064 -0.0974 0.8568
vn 0.8538 -0.1725 0.4912
vn 0.7241 -0.4841 0.4911
vn 0.5064 -0.0973 0.8568
vn 0.4301 -0.2845 0.8568
vn 0.2877 -0.4280 0.8568
vn 0.4857 -0.7231 0.4912
vn 0.1011 -0.5057 0.8568
vn 0.1010 -0.5057 0.8568
vn -0.1011 -0.5057 0.8568
vn -0.1707 -0.8542 0.4911
vn -0.2877 -0.4280 0.8568
vn -0.4301 -0.2846 0.8568
vn -0.4301 -0.2845 0.8568
vn -0.5064 -0.0974 0.8568
vn -0.8546 -0.1688 0.4912
vn 0.1406 0.0296 0.9896
vn 0.1406 -0.0296 0.9896
vn 0.1209 -0.0777 0.9896
vn 0.4301 -0.2846 0.8568
vn 0.0793 -0.1199 0.9896
vn 0.2876 -0.4280 0.8568
vn 0.0792 -0.1199 0.9896
vn 0.0315 -0.1402 0.9896
vn -0.0278 -0.1410 0.9896
vn -0.0823 -0.1178 0.9896
vn -0.1188 -0.0808 0.9896
vn -0.1413 -0.0260 0.9896
vn -0.9808 0.1951 0.0022
vn -0.9725 0.1913 0.1329
vn -0.8315 0.5556 0.0022
vn -0.8234 0.5516 0.1329
vn -0.5556 0.8315 0.0022
vn -0.5532 0.8224 0.1329
vn -0.1951 0.9808 0.0022
vn -0.5532 0.8224 0.1328
vn -0.1931 0.9721 0.1329
vn 0.1951 0.9808 0.0022
vn 0.1968 0.9714 0.1329
vn 0.5556 0.8315 0.0022
vn 0.5501 0.8245 0.1329
vn 0.8315 0.5556 0.0022
vn 0.8255 0.5485 0.1329
vn -0.8546 0.1688 0.4911
vn -0.8546 0.1688 0.4912
vn -0.7262 0.4810 0.4912
vn -0.7262 0.4810 0.4911
vn -0.4826 0.7252 0.4911
vn -0.1706 0.8542 0.4911
vn -0.1706 0.8542 0.4912
vn 0.1669 0.8549 0.4912
vn 0.1669 0.8549 0.4911
vn 0.5500 0.8245 0.1329
vn 0.4857 0.7231 0.4912
vn 0.4857 0.7231 0.4911
vn 0.8256 0.5485 0.1329
vn 0.7242 0.4841 0.4911
vn 0.7241 0.4842 0.4911
vn -0.5064 0.0974 0.8568
vn -0.5064 0.0973 0.8568
vn -0.4301 0.2845 0.8568
vn -0.2877 0.4280 0.8568
vn -0.4826 0.7252 0.4912
vn -0.1010 0.5057 0.8568
vn -0.1011 0.5057 0.8568
vn 0.1011 0.5057 0.8568
vn 0.1670 0.8549 0.4911
vn 0.2877 0.4280 0.8568
vn 0.7241 0.4841 0.4912
vn 0.4301 0.2845 0.8568
vn -0.1413 0.0260 0.9896
vn -0.1188 0.0808 0.9896
vn -0.4301 0.2846 0.8568
vn -0.0823 0.1178 0.9896
vn -0.2876 0.4280 0.8568
vn -0.0278 0.1410 0.9896
vn 0.0315 0.1402 0.9896
vn 0.0792 0.1198 0.9896
vn 0.0793 0.1199 0.9896
vn 0.1209 0.0777 0.9896
vn -0.0823 -0.1177 0.9896
vt 0.134309 0.000871
vt 0.134309 0.951433
vt 0.117526 0.000871
vt 0.116167 0.945089
vt 0.100777 0.000749
vt 0.099622 0.940697
vt 0.084027 0.000627
vt 0.084095 0.938258
vt 0.067244 0.000627
vt 0.069113 0.937526
vt 0.050495 0.000505
vt 0.054096 0.938380
vt 0.033746 0.000505
vt 0.038536 0.940819
vt 0.016962 0.000383
vt 0.022059 0.944845
vt 0.000383 0.000383
vt 0.004290 0.950091
vt 0.123913 0.971927
vt 0.109033 0.962412
vt 0.095409 0.956556
vt 0.082295 0.953385
vt 0.069385 0.952409
vt 0.056440 0.953385
vt 0.043089 0.956678
vt 0.028955 0.962290
vt 0.013089 0.971561
vt 0.106586 0.987298
vt 0.098263 0.978149
vt 0.089022 0.972415
vt 0.079373 0.969244
vt 0.069622 0.968268
vt 0.059770 0.969487
vt 0.049985 0.973025
vt 0.040303 0.979247
vt 0.031028 0.989494
vt 0.085081 0.997424
vt 0.082363 0.993642
vt 0.078660 0.991080
vt 0.074447 0.989738
vt 0.069996 0.989494
vt 0.065613 0.990348
vt 0.061503 0.992422
vt 0.057969 0.995472
vt 0.055421 0.999620
vt 0.269017 0.000871
vt 0.269017 0.951433
vt 0.252234 0.000871
vt 0.250875 0.945089
vt 0.235485 0.000749
vt 0.234295 0.940697
vt 0.218701 0.000627
vt 0.218803 0.938258
vt 0.201952 0.000627
vt 0.203821 0.937526
vt 0.185203 0.000505
vt 0.188770 0.938380
vt 0.168453 0.000505
vt 0.173244 0.940819
vt 0.151670 0.000383
vt 0.156732 0.944845
vt 0.135091 0.000383
vt 0.138964 0.950091
vt 0.258621 0.971927
vt 0.243740 0.962412
vt 0.230117 0.956556
vt 0.217003 0.953385
vt 0.204092 0.952409
vt 0.191114 0.953385
vt 0.177796 0.956678
vt 0.163663 0.962290
vt 0.147797 0.971561
vt 0.241294 0.987298
vt 0.232970 0.978149
vt 0.223729 0.972415
vt 0.214081 0.969244
vt 0.204296 0.968268
vt 0.194478 0.969487
vt 0.184659 0.973025
vt 0.175010 0.979247
vt 0.165735 0.989494
vt 0.219754 0.997424
vt 0.217070 0.993642
vt 0.213367 0.991080
vt 0.209155 0.989738
vt 0.204704 0.989494
vt 0.200321 0.990348
vt 0.196210 0.992422
vt 0.192677 0.995472
vt 0.190095 0.999620
vt 0.273332 0.000383
vt 0.275098 0.000383
vt 0.271701 0.001115
vt 0.270444 0.002335
vt 0.276729 0.001115
vt 0.269764 0.003921
vt 0.277986 0.002335
vt 0.269764 0.005751
vt 0.278666 0.003921
vt 0.270444 0.007337
vt 0.278666 0.005751
vt 0.271701 0.008556
vt 0.277986 0.007337
vt 0.273332 0.009288
vt 0.276729 0.008556
vt 0.275098 0.009288
s 0
g object_1_object_1.002
usemtl object_1.002
f 1/1/1 2/2/2 3/3/3
f 2/2/2 4/4/4 3/3/3
f 3/3/3 4/4/4 5/5/5
f 4/4/4 6/6/6 5/5/5
f 5/5/5 6/6/6 7/7/7
f 6/6/6 8/8/8 7/7/7
f 7/7/7 8/8/8 9/9/9
f 8/8/8 10/10/10 9/9/9
f 9/9/9 10/10/10 11/11/11
f 10/10/10 12/12/12 11/11/11
f 11/11/11 12/12/12 13/13/13
f 12/12/12 14/14/14 13/13/13
f 13/13/13 14/14/14 15/15/15
f 14/14/14 16/16/16 15/15/15
f 15/15/15 16/16/17 17/17/18
f 16/16/17 18/18/19 17/17/18
f 2/2/2 19/19/20 4/4/4
f 19/19/21 20/20/22 4/4/4
f 4/4/4 20/20/22 6/6/6
f 20/20/22 21/21/23 6/6/6
f 6/6/6 21/21/24 8/8/8
f 21/21/24 22/22/25 8/8/8
f 8/8/26 22/22/25 10/10/10
f 22/22/25 23/23/27 10/10/10
f 10/10/10 23/23/28 12/12/12
f 23/23/28 24/24/29 12/12/12
f 12/12/30 24/24/29 14/14/14
f 24/24/31 25/25/32 14/14/14
f 14/14/14 25/25/33 16/16/17
f 25/25/33 26/26/34 16/16/17
f 16/16/17 26/26/35 18/18/19
f 26/26/34 27/27/36 18/18/19
f 19/19/20 28/28/37 20/20/22
f 28/28/37 29/29/38 20/20/39
f 20/20/39 29/29/38 21/21/40
f 29/29/41 30/30/42 21/21/24
f 21/21/23 30/30/42 22/22/25
f 30/30/42 31/31/43 22/22/25
f 22/22/44 31/31/43 23/23/27
f 31/31/43 32/32/45 23/23/27
f 23/23/27 32/32/46 24/24/29
f 32/32/45 33/33/47 24/24/48
f 24/24/29 33/33/47 25/25/32
f 33/33/47 34/34/49 25/25/32
f 25/25/32 34/34/49 26/26/35
f 34/34/49 35/35/50 26/26/34
f 26/26/34 35/35/51 27/27/36
f 35/35/51 36/36/52 27/27/53
f 28/28/37 37/37/54 29/29/38
f 37/37/54 38/38/55 29/29/38
f 29/29/38 38/38/55 30/30/42
f 38/38/55 39/39/56 30/30/57
f 30/30/57 39/39/56 31/31/43
f 39/39/56 40/40/58 31/31/59
f 31/31/43 40/40/58 32/32/45
f 40/40/60 41/41/61 32/32/46
f 32/32/45 41/41/61 33/33/47
f 41/41/61 42/42/62 33/33/47
f 33/33/47 42/42/62 34/34/49
f 42/42/62 43/43/63 34/34/49
f 34/34/49 43/43/63 35/35/51
f 43/43/63 44/44/64 35/35/50
f 35/35/51 44/44/64 36/36/52
f 44/44/64 45/45/65 36/36/52
f 46/46/18 47/47/19 48/48/66
f 47/47/19 49/49/67 48/48/66
f 48/48/66 49/49/67 50/50/68
f 49/49/67 51/51/69 50/50/68
f 50/50/68 51/51/69 52/52/70
f 51/51/69 53/53/71 52/52/70
f 52/52/70 53/53/71 54/54/72
f 53/53/73 55/55/74 54/54/72
f 54/54/72 55/55/74 56/56/75
f 55/55/74 57/57/76 56/56/75
f 56/56/75 57/57/76 58/58/77
f 57/57/76 59/59/78 58/58/77
f 58/58/77 59/59/78 60/60/79
f 59/59/78 61/61/80 60/60/79
f 60/60/79 61/61/80 62/62/1
f 61/61/80 63/63/2 62/62/1
f 47/47/19 64/64/36 49/49/67
f 64/64/36 65/65/81 49/49/67
f 49/49/67 65/65/82 51/51/69
f 65/65/81 66/66/83 51/51/69
f 51/51/69 66/66/84 53/53/71
f 66/66/84 67/67/85 53/53/71
f 53/53/71 67/67/85 55/55/74
f 67/67/85 68/68/86 55/55/74
f 55/55/74 68/68/86 57/57/76
f 68/68/87 69/69/88 57/57/76
f 57/57/76 69/69/89 59/59/90
f 69/69/88 70/70/91 59/59/78
f 59/59/78 70/70/92 61/61/93
f 70/70/91 71/71/94 61/61/80
f 61/61/80 71/71/95 63/63/2
f 71/71/95 72/72/20 63/63/2
f 64/64/36 73/73/52 65/65/81
f 73/73/52 74/74/96 65/65/81
f 65/65/81 74/74/97 66/66/83
f 74/74/96 75/75/98 66/66/84
f 66/66/83 75/75/98 67/67/85
f 75/75/98 76/76/99 67/67/85
f 67/67/100 76/76/99 68/68/86
f 76/76/99 77/77/101 68/68/87
f 68/68/86 77/77/101 69/69/89
f 77/77/102 78/78/103 69/69/104
f 69/69/88 78/78/103 70/70/92
f 78/78/103 79/79/105 70/70/92
f 70/70/92 79/79/105 71/71/106
f 79/79/105 80/80/107 71/71/106
f 71/71/106 80/80/107 72/72/20
f 80/80/107 81/81/37 72/72/20
f 73/73/52 82/82/65 74/74/96
f 82/82/65 83/83/108 74/74/96
f 74/74/96 83/83/108 75/75/98
f 83/83/108 84/84/109 75/75/98
f 75/75/110 84/84/109 76/76/99
f 84/84/109 85/85/111 76/76/112
f 76/76/99 85/85/111 77/77/102
f 85/85/111 86/86/113 77/77/101
f 77/77/102 86/86/113 78/78/103
f 86/86/113 87/87/114 78/78/103
f 78/78/103 87/87/114 79/79/105
f 87/87/114 88/88/115 79/79/105
f 79/79/105 88/88/115 80/80/107
f 88/88/116 89/89/117 80/80/107
f 80/80/107 89/89/117 81/81/37
f 89/89/117 90/90/54 81/81/37
f 91/91/65 92/92/64 93/93/108
f 92/92/64 94/94/109 93/93/108
f 92/92/64 95/95/63 94/94/109
f 95/95/118 96/96/111 94/94/109
f 95/95/63 97/97/62 96/96/111
f 97/97/62 98/98/113 96/96/111
f 97/97/62 99/99/61 98/98/113
f 99/99/61 100/100/114 98/98/113
f 99/99/61 101/101/58 100/100/114
f 101/101/58 102/102/116 100/100/114
f 101/101/58 103/103/56 102/102/116
f 103/103/56 104/104/117 102/102/116
f 103/103/56 105/105/55 104/104/117
f 105/105/55 106/106/54 104/104/117
